<?xml version="1.0" encoding="UTF-8" standalone="no"?>
<!-- Created with Inkscape (http://www.inkscape.org/) -->

<svg
   width="210mm"
   height="297mm"
   viewBox="0 0 210 297"
   version="1.1"
   id="svg5"
   inkscape:version="1.2 (1:1.2+202206011327+fc4e4096c5)"
   sodipodi:docname="logo.svg"
   inkscape:export-filename="logo.jpg"
   inkscape:export-xdpi="232.22856"
   inkscape:export-ydpi="232.22856"
   xmlns:inkscape="http://www.inkscape.org/namespaces/inkscape"
   xmlns:sodipodi="http://sodipodi.sourceforge.net/DTD/sodipodi-0.dtd"
   xmlns="http://www.w3.org/2000/svg"
   xmlns:svg="http://www.w3.org/2000/svg">
  <sodipodi:namedview
     id="namedview7"
     pagecolor="#ffffff"
     bordercolor="#999999"
     borderopacity="1"
     inkscape:pageshadow="0"
     inkscape:pageopacity="0"
     inkscape:pagecheckerboard="0"
     inkscape:document-units="mm"
     showgrid="false"
     inkscape:zoom="0.97638867"
     inkscape:cx="200.22764"
     inkscape:cy="452.17649"
     inkscape:window-width="1844"
     inkscape:window-height="1022"
     inkscape:window-x="76"
     inkscape:window-y="28"
     inkscape:window-maximized="1"
     inkscape:current-layer="layer1"
     inkscape:showpageshadow="0"
     inkscape:deskcolor="#d1d1d1" />
  <defs
     id="defs2" />
  <g
     inkscape:label="Layer 1"
     inkscape:groupmode="layer"
     id="layer1">
    <g
       id="g37577"
       transform="matrix(1.5854139,0,0,1.5854139,-56.40367,-87.219295)"
       inkscape:export-filename="./g37577.jpg"
       inkscape:export-xdpi="276.13342"
       inkscape:export-ydpi="276.13342">
      <path
         id="path37542"
         style="fill:#343434;stroke:none;stroke-width:0.183118"
         d="m 375.88086,523.61719 c -12.67907,-0.0881 -24.60687,5.69495 -36.62305,8.94531 -6.69479,1.81104 -12.92691,2.04102 -19.77734,2.04102 v 4.39453 h 17.76367 c 2.82735,0 6.00019,0.4046 8.78906,-0.0606 3.01232,-0.50173 6.05558,-1.95687 8.97266,-2.86328 6.89072,-2.1425 13.97608,-4.04612 21.24219,-4.03516 6.74791,0.0113 13.57366,1.86828 19.95898,3.90821 3.0031,0.95954 6.0762,2.30314 9.15625,2.95507 2.278,0.48341 4.9986,0.0957 7.32422,0.0957 h 14.4668 v -4.21094 c -17.77157,0 -33.49819,-11.04357 -51.27344,-11.16992 z"
         transform="scale(0.26458333)" />
      <path
         id="path37540"
         style="fill:#343434;stroke:none;stroke-width:0.183118"
         d="m 373.31836,506.95312 c -8.89587,0.10621 -17.63724,3.80588 -26.00391,6.4043 -9.36279,2.90975 -18.00241,4.82158 -27.83398,4.40039 v 8.42188 c 2.61675,0.0529 5.24539,0.34749 7.875,0.16797 6.05752,-0.41568 11.98618,-2.03957 17.76172,-3.83594 9.10276,-2.82735 18.69588,-7.08714 28.38281,-7.13477 5.97148,-0.0302 11.61728,0.6608 17.39648,2.22461 11.99604,3.24484 23.62085,8.76172 36.25782,8.76172 v -8.42383 c -12.30735,0 -23.67538,-5.28631 -35.3418,-8.52929 -6.13077,-1.70302 -12.13628,-2.53213 -18.49414,-2.45704 z"
         transform="scale(0.26458333)" />
      <path
         id="path37538"
         style="fill:#343434;stroke:none;stroke-width:0.183118"
         d="m 398.96094,453.51562 c -0.17127,-0.005 -0.35425,0.0266 -0.54492,0.10352 -1.50891,0.60813 -0.46627,2.92628 1.0664,2.29102 1.30266,-0.53949 0.67738,-2.36013 -0.52148,-2.39454 z"
         transform="scale(0.26458333)" />
      <path
         id="path37536"
         style="fill:#343434;stroke:none;stroke-width:0.183118"
         d="m 372.36719,366.57812 c -14.70038,0.31339 -29.24559,6.36049 -39.48828,17.68555 -7.35217,8.12878 -12.09417,18.75393 -13.18555,29.66406 -0.60431,6.03134 -0.21289,12.25022 -0.21289,18.3125 v 29.84766 35.52539 8.78906 c 0,0.694 -0.31478,2.4442 0.29297,2.92578 0.55302,0.43767 1.7829,0.16131 2.45312,0.24219 2.76507,0.3258 5.67524,0.0216 8.42383,-0.37109 8.77501,-1.25435 17.25358,-4.28863 25.63672,-7.06836 2.57828,-0.85697 7.12989,-1.06606 9.13867,-2.9082 1.11704,-1.02547 1.47468,-2.55092 1.71094,-3.99024 0.60608,-3.71176 -0.0846,-8.80719 -2.64453,-11.71875 -1.45395,-1.65354 -3.31971,-2.42524 -5.27539,-3.29687 l 9.15429,-3.08789 7.50782,-4.60157 v -0.18359 c -2.08207,0.97236 -3.93162,2.38639 -6.04297,3.32031 -5.89274,2.60576 -13.137,4.36914 -19.59375,4.36914 -3.2668,0 -6.26837,0.33934 -9.1543,-1.60156 -5.54846,-3.73194 -3.11696,-9.79089 -4.46289,-15.24414 -1.37522,-5.56713 -4.82918,-10.48653 -5.22656,-16.29688 -0.46511,-6.78432 3.37772,-12.24198 4.29883,-18.67968 0.59327,-4.14029 -1.30052,-8.33104 -1.38477,-12.45117 1.6554,0.73723 3.12702,1.34396 4.35938,2.74609 4.12384,4.68707 1.80916,12.39324 -1.14454,17.03125 -1.22139,1.92072 -4.65601,4.99278 -4.65234,7.32422 0.002,1.18295 1.1756,1.81891 2.16992,2.11719 2.46845,0.74071 6.49151,0.19398 5.3086,3.92578 0.31294,-0.22753 0.59361,-0.42496 0.82617,-0.74414 2.29081,-3.14888 -3.3982,-3.8435 -5.03711,-4.7168 -0.58413,-0.31219 -1.1881,-0.79562 -1.28516,-1.49805 -0.25436,-1.83632 2.40533,-4.33951 3.24219,-5.85937 1.90809,-3.46239 3.35156,-7.7165 3.35156,-11.71875 0,-3.15402 -1.35753,-6.3561 -3.29492,-8.79102 -0.81672,-1.02508 -3.47268,-2.51425 -3.41406,-3.8457 0.0933,-2.17489 1.04526,-4.51102 1.63672,-6.5918 1.88061,-6.61912 4.85624,-16.20219 13.31445,-16.47265 5.31224,-0.16971 10.40433,4.01067 14.09961,7.34765 4.6732,4.2203 7.6791,10.04585 9.3125,16.08399 1.45028,5.36167 1.88499,10.74217 4.46875,15.74804 1.6005,3.10167 3.8481,6.08369 6.72851,8.09961 2.45012,1.71493 5.3022,2.65645 7.875,4.14649 1.44662,0.83777 2.55507,2.18988 4.02735,2.95312 1.5583,-3.33256 4.65711,-6.97709 8.42383,-7.7793 4.68963,-0.99892 6.40543,4.79654 6.01171,8.32813 -0.42481,3.81124 -2.98971,5.96761 -5.44531,8.60742 -1.12981,1.21572 -2.04144,2.61798 -3.16211,3.84375 -0.67022,0.73414 -2.19894,1.39971 -2.60547,2.26953 -0.7361,1.57554 -0.10937,4.7817 -0.10937,6.52149 v 15.74804 c 3.03609,-1.08585 8.20491,-0.13561 6.9707,4.39454 -0.5695,2.08936 -2.83325,3.86453 -4.40625,5.23242 -0.68118,0.59146 -1.99038,2.44374 -2.93164,2.44922 -1.06023,0.004 -2.60459,-2.04795 -3.29492,-2.73828 -1.46313,-1.46314 -3.63183,-3.00464 -4.11523,-5.12696 -1.02732,-4.50285 4.07111,-5.27483 7.04492,-4.21094 v -22.52343 l -3.47852,-2.38086 c -0.004,4.83832 -0.95384,10.43391 -2.98828,14.83203 -3.28513,7.10132 -8.35632,13.68119 -8.13476,21.97461 0.14097,5.29209 5.36994,7.8611 9.83984,9.20703 10.84603,3.26865 21.82101,7.99853 33.32812,8.00586 V 434.4375 c 0,-6.14011 0.55016,-12.56764 -0.0312,-18.67773 -0.82034,-8.62322 -3.24615,-17.01813 -7.96875,-24.35547 -3.74657,-5.8204 -8.51987,-10.90928 -14.15625,-14.9375 -9.66735,-6.90879 -21.19527,-10.13242 -32.6289,-9.88868 z M 352.625,415.20898 c -2.77058,0.0378 -6.22471,0.12599 -6.22656,3.48047 3.53968,-0.47686 6.62268,-1.62966 10.2539,-1.01953 4.35088,0.73119 8.1755,3.50122 12.45313,4.13281 -4.66768,-4.0696 -10.34418,-6.67652 -16.48047,-6.59375 z m 14.46484,11.72071 c -2.36953,0.18708 -4.75461,0.69655 -7.14062,0.5332 -3.54883,-0.24302 -7.3694,-1.0972 -10.80469,0.19922 v 0.18359 c 2.23956,0.0665 4.2497,2.11657 6.5918,2.48242 2.92804,0.45744 4.38981,-0.91644 6.95898,-1.65624 1.7799,-0.51236 3.45332,0.37926 4.39453,-1.74219 z m -30.39648,26.48242 c -2.71467,-0.0631 -0.23639,3.4085 0.91406,3.91601 -0.30765,0.65976 -0.76156,1.28158 -0.87695,2.01368 -0.0805,0.52335 -0.0701,1.12198 -0.0176,1.64843 0.52921,5.29486 8.17159,0.79951 10.60156,0.22657 1.14633,-0.27024 2.32499,-0.39927 3.48047,-0.62891 0.94488,-0.18784 4.13261,-0.51785 3.54297,-2.13477 -0.28006,-0.76747 -1.94406,-0.7874 -2.62891,-1.00585 -2.64971,-0.84564 -5.32591,-1.71385 -7.87304,-2.83985 -2.49041,-1.10124 -4.48187,-1.13378 -7.14258,-1.19531 z"
         transform="scale(0.26458333)" />
    </g>
    <path
       id="path37534"
       style="fill:#343434;stroke:none;stroke-width:0.04845"
       d="m 113.48514,144.5729 c -0.083,-0.002 -0.16823,0.004 -0.25477,0.0196 h -5.2e-4 c -1.08044,0.19478 -0.92087,1.26011 -0.92087,2.10944 0,2.10902 -0.09,4.2403 0.002,6.3469 0.0349,0.79846 0.52984,1.26986 1.35495,1.14825 1.05475,-0.15601 0.92036,-1.2784 0.92036,-2.06861 0,-2.14536 0.15249,-4.35305 -0.004,-6.49211 -0.0449,-0.61259 -0.51609,-1.04776 -1.09709,-1.0635 z m -22.18005,0.0222 c -0.263027,0.003 -0.523472,0.0238 -0.749308,0.0238 v 9.54464 h 0.581359 v -4.3124 c 0.328001,0 0.713899,-0.0529 0.934828,0.24753 0.227709,0.31056 0.130741,0.84372 0.130741,1.20613 v 2.85874 h 0.581877 v -3.29489 c 0,-0.48983 0.07763,-1.01058 -0.339516,-1.35651 0.676852,-0.75436 0.339516,-2.47692 0.339516,-3.4401 0,-0.4157 0.03575,-0.84037 -0.295589,-1.15238 -0.300395,-0.28223 -0.745527,-0.32899 -1.183908,-0.32453 z m 28.85302,0.003 c -0.28574,-0.003 -0.57302,0.0207 -0.8232,0.0207 v 9.54464 h 0.62993 v -4.3124 c 0.32123,0 0.67704,-0.0433 0.89556,0.24494 0.21996,0.29119 0.12195,0.81614 0.12195,1.16014 v 2.90732 h 0.62994 c 0,-1.24225 0.0296,-2.48875 -5.2e-4,-3.73052 -0.008,-0.31589 -0.2965,-0.69958 -0.26355,-0.96945 0.0291,-0.24129 0.21568,-0.46591 0.2496,-0.72658 0.0979,-0.75242 0.0145,-1.56671 0.0145,-2.32543 0,-0.43363 0.0695,-0.98971 -0.21446,-1.35599 -0.2913,-0.3764 -0.76348,-0.45281 -1.23972,-0.45734 z m -44.379719,0.0207 v 9.54464 h 0.629936 v -4.3124 h 0.04857 l 0.484209,4.3124 h 0.629936 c 0.26212,-1.41183 0.528913,-3.02204 0.532783,-4.45761 h 0.04857 v 4.45761 h 0.581361 v -9.54464 h -0.581361 l -0.871781,6.92826 h -0.04857 l -0.823722,-6.92826 z m 8.575701,0 -0.541052,6.20169 -0.28267,3.34295 h 0.581361 l 0.145211,-1.64745 h 0.775145 l 0.14573,1.64745 h 0.581358 l -0.234093,-2.90732 -0.381889,-4.40851 -0.145211,-1.64745 -0.09819,-0.53175 z m 14.050306,0 -0.823722,9.54464 h 0.581877 c 0.046,-0.36434 -0.04375,-1.3054 0.222726,-1.56993 0.14777,-0.14632 0.618457,-0.12663 0.710037,0.0749 0.16909,0.37404 0.13184,1.08415 0.1328,1.495 h 0.62994 l -0.65784,-7.31583 -0.13746,-1.64745 -0.10594,-0.53175 z m 6.201692,0 v 9.54464 h 0.58136 v -4.45761 h 0.0486 l 0.53278,4.45761 h 0.62994 l 0.5333,-4.45761 h 0.0481 v 4.45761 h 0.58136 v -9.54464 l -0.55191,0.0496 -0.11265,0.4346 -0.1385,1.16272 -0.65008,5.37796 h -0.0486 c -0.006,-2.34642 -0.80434,-4.67846 -0.82372,-7.02489 z m 8.85992,0.48214 c 0.64111,-0.0393 0.49093,1.04193 0.49093,1.45573 v 5.23275 c 0,0.45252 0.22834,1.71213 -0.339,1.86862 -0.84158,0.23159 -0.67851,-0.9504 -0.67851,-1.43247 v -5.18418 c 0,-0.48159 -0.23501,-1.75389 0.38758,-1.91668 0.05,-0.0131 0.0963,-0.0212 0.139,-0.0238 z m -21.851894,0.0419 c 0.162848,0.0101 0.31664,0.0491 0.42323,0.16536 0.209309,0.22772 0.165364,0.57653 0.165364,0.86093 v 1.88929 c 0,0.27132 0.05812,0.62273 -0.07028,0.87127 -0.11435,0.22142 -0.803079,0.55977 -0.966348,0.22789 -0.142449,-0.29022 -0.02894,-0.87457 -0.02894,-1.19579 v -1.11414 -1.69603 c 0.1422,0 0.314124,-0.0188 0.476975,-0.009 z m 28.576554,0.001 c 0.23871,-0.009 0.50145,-0.005 0.65371,0.17209 0.19233,0.22432 0.13797,0.57991 0.13797,0.85317 v 1.98645 c 0,0.26404 0.0637,0.63328 -0.0977,0.86196 -0.19187,0.27132 -0.62526,0.25218 -0.91984,0.25218 v -4.1181 c 0.0693,0 0.14626,-0.005 0.22583,-0.008 z m -21.446758,3.06028 0.290424,3.73052 h -0.678513 l 0.238229,-2.51922 z m -14.05082,0.0486 0.290936,3.68194 h -0.678511 l 0.234096,-2.51922 z m 0.779796,9.46867 c -0.302207,-0.005 -0.608232,0.10806 -0.860412,0.37569 -0.37888,0.40213 -0.452048,1.07163 -0.318328,1.58956 0.305721,1.18654 2.243426,1.38325 2.385385,0 -0.48257,0.0383 -0.560009,0.74725 -1.162719,0.74725 -1.016,0 -1.233001,-1.37833 -0.744141,-2.05518 0.314439,-0.43508 0.913062,-0.57572 1.323433,-0.18862 0.132271,0.125 0.220327,0.26574 0.293005,0.43047 l 0.290422,-0.0481 c -0.210764,-0.50357 -0.702966,-0.84225 -1.206645,-0.85111 z m 7.311699,5.2e-4 c -0.361489,-5.1e-4 -0.713356,0.17493 -0.83354,0.55965 -0.347872,1.11532 1.262298,0.7584 1.585949,1.40715 0.275188,0.55184 -0.593121,0.86147 -0.994772,0.69092 -0.35029,-0.14922 -0.348687,-0.61485 -0.727088,-0.64441 0.0456,0.99371 1.736828,1.36856 2.008147,0.339 0.331391,-1.25631 -1.429617,-0.7126 -1.604036,-1.55029 -0.0746,-0.35659 0.361585,-0.58392 0.661974,-0.56793 0.33043,0.0174 0.551445,0.26705 0.629936,0.56793 h 0.242364 c -0.02346,-0.5099 -0.504164,-0.80137 -0.968934,-0.80202 z m 19.405023,0 c -0.48767,-0.008 -0.99787,0.26492 -0.9648,0.80202 0.0586,0.95011 1.68882,0.51735 1.65054,1.3565 -0.0402,0.86628 -1.40724,0.62123 -1.48621,-0.14573 -0.51744,0.0402 -0.12026,0.64715 0.14573,0.79685 0.66327,0.37259 2.03957,-0.10839 1.54151,-1.03766 -0.24225,-0.45301 -0.84944,-0.40532 -1.25109,-0.60978 -0.19913,-0.10126 -0.38855,-0.31557 -0.30231,-0.55346 0.23402,-0.64776 1.16707,-0.3823 1.27124,0.19328 h 0.29042 c -0.0601,-0.28586 -0.15317,-0.56208 -0.43563,-0.69919 -0.13663,-0.066 -0.29685,-0.10005 -0.4594,-0.10283 z m -3.53984,0.003 c -0.30699,0.005 -0.6149,0.13348 -0.86144,0.41909 -0.35854,0.4157 -0.40674,1.07703 -0.26769,1.5906 0.31735,1.17249 2.22916,1.29115 2.36627,-0.0481 -0.47239,0.0378 -0.56291,0.74725 -1.16272,0.74725 -1.00776,0 -1.22816,-1.38611 -0.74414,-2.05569 0.31588,-0.4375 0.9501,-0.58378 1.35805,-0.17777 0.11967,0.1187 0.19248,0.268 0.25838,0.42013 l 0.29043,-0.0486 c -0.21682,-0.52113 -0.72549,-0.85545 -1.23714,-0.84697 z m -19.42104,0.007 c -0.126203,7.8e-4 -0.251113,0.0151 -0.368969,0.0424 -0.980631,0.22675 -1.165889,1.67824 -0.646988,2.39675 0.320741,0.4438 0.907595,0.57037 1.422135,0.45165 1.030039,-0.23788 1.214594,-1.75526 0.604615,-2.48201 -0.242011,-0.28815 -0.632179,-0.41112 -1.010793,-0.40876 z m 5.97793,0.0651 v 2.81016 h 0.290938 l -0.04857,-2.47065 h 0.04857 l 0.871781,2.47065 h 0.290939 l 0.872299,-2.42259 h 0.04806 v 2.42259 h 0.242364 v -2.81016 c -0.470932,0.001 -0.50038,0.28171 -0.650092,0.67851 -0.189439,0.50194 -0.332867,1.30887 -0.706416,1.6955 l -0.823722,-2.37401 z m 4.166676,0 v 2.81016 h 1.889804 c -0.0727,-0.43411 -1.284064,-0.24236 -1.647444,-0.24236 0,-0.26163 -0.0991,-0.77866 0.0501,-1.00201 0.1749,-0.26212 1.113804,-0.11214 1.403544,-0.11214 v -0.19378 c -0.28974,0 -1.228644,0.14945 -1.403544,-0.11266 -0.13808,-0.20639 -0.0501,-0.66405 -0.0501,-0.90485 h 1.550294 v -0.24236 z m 2.955894,0 c 0.061,0.3658 0.58399,0.24236 0.87178,0.24236 v 2.5678 h 0.29094 v -2.5678 h 0.87178 v -0.24236 z m 3.39152,0 v 2.81016 h 0.29042 v -2.81016 z m -16.484783,0.14831 c 1.340651,-0.0433 1.464498,2.33944 0.108519,2.49339 -1.37549,0.1565 -1.540333,-2.29449 -0.242361,-2.48151 0.04577,-0.007 0.09059,-0.0105 0.133842,-0.0119 z" />
    <g
       id="g37790"
       transform="matrix(1.5854139,0,0,1.5854139,242.48429,-84.14315)">
      <path
         id="path37782"
         style="fill:#343434;stroke:none;stroke-width:0.183118"
         d="m 375.88086,523.61719 c -12.67907,-0.0881 -24.60687,5.69495 -36.62305,8.94531 -6.69479,1.81104 -12.92691,2.04102 -19.77734,2.04102 v 4.39453 h 17.76367 c 2.82735,0 6.00019,0.4046 8.78906,-0.0606 3.01232,-0.50173 6.05558,-1.95687 8.97266,-2.86328 6.89072,-2.1425 13.97608,-4.04612 21.24219,-4.03516 6.74791,0.0113 13.57366,1.86828 19.95898,3.90821 3.0031,0.95954 6.0762,2.30314 9.15625,2.95507 2.278,0.48341 4.9986,0.0957 7.32422,0.0957 h 14.4668 v -4.21094 c -17.77157,0 -33.49819,-11.04357 -51.27344,-11.16992 z"
         transform="scale(0.26458333)" />
      <path
         id="path37784"
         style="fill:#343434;stroke:none;stroke-width:0.183118"
         d="m 373.31836,506.95312 c -8.89587,0.10621 -17.63724,3.80588 -26.00391,6.4043 -9.36279,2.90975 -18.00241,4.82158 -27.83398,4.40039 v 8.42188 c 2.61675,0.0529 5.24539,0.34749 7.875,0.16797 6.05752,-0.41568 11.98618,-2.03957 17.76172,-3.83594 9.10276,-2.82735 18.69588,-7.08714 28.38281,-7.13477 5.97148,-0.0302 11.61728,0.6608 17.39648,2.22461 11.99604,3.24484 23.62085,8.76172 36.25782,8.76172 v -8.42383 c -12.30735,0 -23.67538,-5.28631 -35.3418,-8.52929 -6.13077,-1.70302 -12.13628,-2.53213 -18.49414,-2.45704 z"
         transform="scale(0.26458333)" />
      <path
         id="path37786"
         style="fill:#343434;stroke:none;stroke-width:0.183118"
         d="m 398.96094,453.51562 c -0.17127,-0.005 -0.35425,0.0266 -0.54492,0.10352 -1.50891,0.60813 -0.46627,2.92628 1.0664,2.29102 1.30266,-0.53949 0.67738,-2.36013 -0.52148,-2.39454 z"
         transform="scale(0.26458333)" />
      <path
         id="path37788"
         style="fill:#343434;stroke:none;stroke-width:0.183118"
         d="m 372.36719,366.57812 c -14.70038,0.31339 -29.24559,6.36049 -39.48828,17.68555 -7.35217,8.12878 -12.09417,18.75393 -13.18555,29.66406 -0.60431,6.03134 -0.21289,12.25022 -0.21289,18.3125 v 29.84766 35.52539 8.78906 c 0,0.694 -0.31478,2.4442 0.29297,2.92578 0.55302,0.43767 1.7829,0.16131 2.45312,0.24219 2.76507,0.3258 5.67524,0.0216 8.42383,-0.37109 8.77501,-1.25435 17.25358,-4.28863 25.63672,-7.06836 2.57828,-0.85697 7.12989,-1.06606 9.13867,-2.9082 1.11704,-1.02547 1.47468,-2.55092 1.71094,-3.99024 0.60608,-3.71176 -0.0846,-8.80719 -2.64453,-11.71875 -1.45395,-1.65354 -3.31971,-2.42524 -5.27539,-3.29687 l 9.15429,-3.08789 7.50782,-4.60157 v -0.18359 c -2.08207,0.97236 -3.93162,2.38639 -6.04297,3.32031 -5.89274,2.60576 -13.137,4.36914 -19.59375,4.36914 -3.2668,0 -6.26837,0.33934 -9.1543,-1.60156 -5.54846,-3.73194 -3.11696,-9.79089 -4.46289,-15.24414 -1.37522,-5.56713 -4.82918,-10.48653 -5.22656,-16.29688 -0.46511,-6.78432 3.37772,-12.24198 4.29883,-18.67968 0.59327,-4.14029 -1.30052,-8.33104 -1.38477,-12.45117 1.6554,0.73723 3.12702,1.34396 4.35938,2.74609 4.12384,4.68707 1.80916,12.39324 -1.14454,17.03125 -1.22139,1.92072 -4.65601,4.99278 -4.65234,7.32422 0.002,1.18295 1.1756,1.81891 2.16992,2.11719 2.46845,0.74071 6.49151,0.19398 5.3086,3.92578 0.31294,-0.22753 0.59361,-0.42496 0.82617,-0.74414 2.29081,-3.14888 -3.3982,-3.8435 -5.03711,-4.7168 -0.58413,-0.31219 -1.1881,-0.79562 -1.28516,-1.49805 -0.25436,-1.83632 2.40533,-4.33951 3.24219,-5.85937 1.90809,-3.46239 3.35156,-7.7165 3.35156,-11.71875 0,-3.15402 -1.35753,-6.3561 -3.29492,-8.79102 -0.81672,-1.02508 -3.47268,-2.51425 -3.41406,-3.8457 0.0933,-2.17489 1.04526,-4.51102 1.63672,-6.5918 1.88061,-6.61912 4.85624,-16.20219 13.31445,-16.47265 5.31224,-0.16971 10.40433,4.01067 14.09961,7.34765 4.6732,4.2203 7.6791,10.04585 9.3125,16.08399 1.45028,5.36167 1.88499,10.74217 4.46875,15.74804 1.6005,3.10167 3.8481,6.08369 6.72851,8.09961 2.45012,1.71493 5.3022,2.65645 7.875,4.14649 1.44662,0.83777 2.55507,2.18988 4.02735,2.95312 1.5583,-3.33256 4.65711,-6.97709 8.42383,-7.7793 4.68963,-0.99892 6.40543,4.79654 6.01171,8.32813 -0.42481,3.81124 -2.98971,5.96761 -5.44531,8.60742 -1.12981,1.21572 -2.04144,2.61798 -3.16211,3.84375 -0.67022,0.73414 -2.19894,1.39971 -2.60547,2.26953 -0.7361,1.57554 -0.10937,4.7817 -0.10937,6.52149 v 15.74804 c 3.03609,-1.08585 8.20491,-0.13561 6.9707,4.39454 -0.5695,2.08936 -2.83325,3.86453 -4.40625,5.23242 -0.68118,0.59146 -1.99038,2.44374 -2.93164,2.44922 -1.06023,0.004 -2.60459,-2.04795 -3.29492,-2.73828 -1.46313,-1.46314 -3.63183,-3.00464 -4.11523,-5.12696 -1.02732,-4.50285 4.07111,-5.27483 7.04492,-4.21094 v -22.52343 l -3.47852,-2.38086 c -0.004,4.83832 -0.95384,10.43391 -2.98828,14.83203 -3.28513,7.10132 -8.35632,13.68119 -8.13476,21.97461 0.14097,5.29209 5.36994,7.8611 9.83984,9.20703 10.84603,3.26865 21.82101,7.99853 33.32812,8.00586 V 434.4375 c 0,-6.14011 0.55016,-12.56764 -0.0312,-18.67773 -0.82034,-8.62322 -3.24615,-17.01813 -7.96875,-24.35547 -3.74657,-5.8204 -8.51987,-10.90928 -14.15625,-14.9375 -9.66735,-6.90879 -21.19527,-10.13242 -32.6289,-9.88868 z M 352.625,415.20898 c -2.77058,0.0378 -6.22471,0.12599 -6.22656,3.48047 3.53968,-0.47686 6.62268,-1.62966 10.2539,-1.01953 4.35088,0.73119 8.1755,3.50122 12.45313,4.13281 -4.66768,-4.0696 -10.34418,-6.67652 -16.48047,-6.59375 z m 14.46484,11.72071 c -2.36953,0.18708 -4.75461,0.69655 -7.14062,0.5332 -3.54883,-0.24302 -7.3694,-1.0972 -10.80469,0.19922 v 0.18359 c 2.23956,0.0665 4.2497,2.11657 6.5918,2.48242 2.92804,0.45744 4.38981,-0.91644 6.95898,-1.65624 1.7799,-0.51236 3.45332,0.37926 4.39453,-1.74219 z m -30.39648,26.48242 c -2.71467,-0.0631 -0.23639,3.4085 0.91406,3.91601 -0.30765,0.65976 -0.76156,1.28158 -0.87695,2.01368 -0.0805,0.52335 -0.0701,1.12198 -0.0176,1.64843 0.52921,5.29486 8.17159,0.79951 10.60156,0.22657 1.14633,-0.27024 2.32499,-0.39927 3.48047,-0.62891 0.94488,-0.18784 4.13261,-0.51785 3.54297,-2.13477 -0.28006,-0.76747 -1.94406,-0.7874 -2.62891,-1.00585 -2.64971,-0.84564 -5.32591,-1.71385 -7.87304,-2.83985 -2.49041,-1.10124 -4.48187,-1.13378 -7.14258,-1.19531 z"
         transform="scale(0.26458333)" />
    </g>
    <path
       style="fill:#ffffff;stroke:none;stroke-width:0.264583px;stroke-linecap:butt;stroke-linejoin:miter;stroke-opacity:1"
       d="m 371.00778,138.82922 c 0.83035,0 17.05985,-1.94676 17.05985,-1.94676 l 10.9451,-3.65457 11.67666,2.1431 17.13132,5.04892 c 0,0 -1.61153,11.56609 -1.61153,12.02654 0,0.46045 -62.87288,1.27602 -62.87288,1.27602 z"
       id="path37847" />
    <path
       id="path37995"
       style="fill:#343434;stroke:none;stroke-width:0.04845"
       d="m 413.9977,138.80359 c -0.083,-0.002 -0.16823,0.004 -0.25477,0.0196 h -5.2e-4 c -1.08044,0.19478 -0.92087,1.26011 -0.92087,2.10944 0,2.10902 -0.09,4.2403 0.002,6.3469 0.0349,0.79846 0.52984,1.26986 1.35495,1.14825 1.05475,-0.15601 0.92036,-1.2784 0.92036,-2.06861 0,-2.14536 0.15249,-4.35305 -0.004,-6.49211 -0.0449,-0.61259 -0.51609,-1.04776 -1.09709,-1.0635 z m -22.18005,0.0222 c -0.26303,0.003 -0.52347,0.0238 -0.74931,0.0238 v 9.54464 h 0.58136 v -4.3124 c 0.328,0 0.7139,-0.0529 0.93483,0.24753 0.22771,0.31056 0.13074,0.84372 0.13074,1.20613 v 2.85874 h 0.58188 v -3.29489 c 0,-0.48983 0.0776,-1.01058 -0.33952,-1.35651 0.67685,-0.75436 0.33952,-2.47692 0.33952,-3.4401 0,-0.4157 0.0358,-0.84037 -0.29559,-1.15238 -0.3004,-0.28223 -0.74553,-0.32899 -1.18391,-0.32453 z m 28.85302,0.003 c -0.28574,-0.003 -0.57302,0.0207 -0.8232,0.0207 v 9.54464 h 0.62993 v -4.3124 c 0.32123,0 0.67704,-0.0433 0.89556,0.24494 0.21996,0.29119 0.12195,0.81614 0.12195,1.16014 v 2.90732 h 0.62994 c 0,-1.24225 0.0296,-2.48875 -5.2e-4,-3.73052 -0.008,-0.31589 -0.2965,-0.69958 -0.26355,-0.96945 0.0291,-0.24129 0.21568,-0.46591 0.2496,-0.72658 0.0979,-0.75242 0.0145,-1.56671 0.0145,-2.32543 0,-0.43363 0.0695,-0.98971 -0.21446,-1.35599 -0.2913,-0.3764 -0.76348,-0.45281 -1.23972,-0.45734 z m -44.37972,0.0207 v 9.54464 h 0.62994 v -4.3124 h 0.0486 l 0.4842,4.3124 h 0.62994 c 0.26212,-1.41183 0.52891,-3.02204 0.53278,-4.45761 h 0.0486 v 4.45761 h 0.58136 v -9.54464 h -0.58136 l -0.87178,6.92826 h -0.0486 l -0.82372,-6.92826 z m 8.5757,0 -0.54105,6.20169 -0.28267,3.34295 h 0.58136 l 0.14521,-1.64745 h 0.77515 l 0.14573,1.64745 h 0.58135 l -0.23409,-2.90732 -0.38189,-4.40851 -0.14521,-1.64745 -0.0982,-0.53175 z m 14.05031,0 -0.82373,9.54464 h 0.58188 c 0.046,-0.36434 -0.0438,-1.3054 0.22273,-1.56993 0.14777,-0.14632 0.61845,-0.12663 0.71003,0.0749 0.16909,0.37404 0.13184,1.08415 0.1328,1.495 h 0.62994 l -0.65784,-7.31583 -0.13746,-1.64745 -0.10594,-0.53175 z m 6.20169,0 v 9.54464 h 0.58136 v -4.45761 h 0.0486 l 0.53278,4.45761 h 0.62994 l 0.5333,-4.45761 h 0.0481 v 4.45761 h 0.58136 v -9.54464 l -0.55191,0.0496 -0.11265,0.4346 -0.1385,1.16272 -0.65008,5.37796 h -0.0486 c -0.006,-2.34642 -0.80434,-4.67846 -0.82372,-7.02489 z m 8.85992,0.48214 c 0.64111,-0.0393 0.49093,1.04193 0.49093,1.45573 v 5.23275 c 0,0.45252 0.22834,1.71213 -0.339,1.86862 -0.84158,0.23159 -0.67851,-0.9504 -0.67851,-1.43247 v -5.18418 c 0,-0.48159 -0.23501,-1.75389 0.38758,-1.91668 0.05,-0.0131 0.0963,-0.0212 0.139,-0.0238 z m -21.8519,0.0419 c 0.16285,0.0101 0.31664,0.0491 0.42323,0.16536 0.20931,0.22772 0.16537,0.57653 0.16537,0.86093 v 1.88929 c 0,0.27132 0.0581,0.62273 -0.0703,0.87127 -0.11435,0.22142 -0.80308,0.55977 -0.96635,0.22789 -0.14245,-0.29022 -0.0289,-0.87457 -0.0289,-1.19579 v -1.11414 -1.69603 c 0.1422,0 0.31412,-0.0188 0.47698,-0.009 z m 28.57656,0.001 c 0.23871,-0.009 0.50145,-0.005 0.65371,0.17209 0.19233,0.22432 0.13797,0.57991 0.13797,0.85317 v 1.98645 c 0,0.26404 0.0637,0.63328 -0.0977,0.86196 -0.19187,0.27132 -0.62526,0.25218 -0.91984,0.25218 v -4.1181 c 0.0693,0 0.14626,-0.005 0.22583,-0.008 z m -21.44676,3.06028 0.29042,3.73052 h -0.67851 l 0.23823,-2.51922 z m -14.05082,0.0486 0.29094,3.68194 h -0.67851 l 0.23409,-2.51922 z m 0.7798,9.46867 c -0.30221,-0.005 -0.60824,0.10806 -0.86042,0.37569 -0.37888,0.40213 -0.45204,1.07163 -0.31832,1.58956 0.30572,1.18654 2.24342,1.38325 2.38538,0 -0.48257,0.0383 -0.56001,0.74725 -1.16272,0.74725 -1.016,0 -1.233,-1.37833 -0.74414,-2.05518 0.31444,-0.43508 0.91306,-0.57572 1.32343,-0.18862 0.13228,0.125 0.22033,0.26574 0.29301,0.43047 l 0.29042,-0.0481 c -0.21076,-0.50357 -0.70296,-0.84225 -1.20664,-0.85111 z m 7.3117,5.2e-4 c -0.36149,-5.1e-4 -0.71336,0.17493 -0.83354,0.55965 -0.34788,1.11532 1.26229,0.7584 1.58594,1.40715 0.27519,0.55184 -0.59312,0.86147 -0.99477,0.69092 -0.35029,-0.14922 -0.34868,-0.61485 -0.72709,-0.64441 0.0456,0.99371 1.73683,1.36856 2.00815,0.339 0.33139,-1.25631 -1.42962,-0.7126 -1.60403,-1.55029 -0.0746,-0.35659 0.36158,-0.58392 0.66197,-0.56793 0.33043,0.0174 0.55144,0.26705 0.62994,0.56793 h 0.24236 c -0.0235,-0.5099 -0.50416,-0.80137 -0.96893,-0.80202 z m 19.40502,0 c -0.48767,-0.008 -0.99787,0.26492 -0.9648,0.80202 0.0586,0.95011 1.68882,0.51735 1.65054,1.3565 -0.0402,0.86628 -1.40724,0.62123 -1.48621,-0.14573 -0.51744,0.0402 -0.12026,0.64715 0.14573,0.79685 0.66327,0.37259 2.03957,-0.10839 1.54151,-1.03766 -0.24225,-0.45301 -0.84944,-0.40532 -1.25109,-0.60978 -0.19913,-0.10126 -0.38855,-0.31557 -0.30231,-0.55346 0.23402,-0.64776 1.16707,-0.3823 1.27124,0.19328 h 0.29042 c -0.0601,-0.28586 -0.15317,-0.56208 -0.43563,-0.69919 -0.13663,-0.066 -0.29685,-0.10005 -0.4594,-0.10283 z m -3.53984,0.003 c -0.30699,0.005 -0.6149,0.13348 -0.86144,0.41909 -0.35854,0.4157 -0.40674,1.07703 -0.26769,1.5906 0.31735,1.17249 2.22916,1.29115 2.36627,-0.0481 -0.47239,0.0378 -0.56291,0.74725 -1.16272,0.74725 -1.00776,0 -1.22816,-1.38611 -0.74414,-2.05569 0.31588,-0.4375 0.9501,-0.58378 1.35805,-0.17777 0.11967,0.1187 0.19248,0.268 0.25838,0.42013 l 0.29043,-0.0486 c -0.21682,-0.52113 -0.72549,-0.85545 -1.23714,-0.84697 z m -19.42104,0.007 c -0.1262,7.8e-4 -0.25111,0.0151 -0.36897,0.0424 -0.98063,0.22675 -1.16589,1.67824 -0.64699,2.39675 0.32074,0.4438 0.9076,0.57037 1.42214,0.45165 1.03004,-0.23788 1.21459,-1.75526 0.60461,-2.48201 -0.24201,-0.28815 -0.63218,-0.41112 -1.01079,-0.40876 z m 5.97793,0.0651 v 2.81016 h 0.29094 l -0.0486,-2.47065 h 0.0486 l 0.87178,2.47065 h 0.29094 l 0.8723,-2.42259 h 0.0481 v 2.42259 h 0.24236 v -2.81016 c -0.47093,10e-4 -0.50038,0.28171 -0.65009,0.67851 -0.18944,0.50194 -0.33287,1.30887 -0.70642,1.6955 l -0.82372,-2.37401 z m 4.16667,0 v 2.81016 h 1.88981 c -0.0727,-0.43411 -1.28407,-0.24236 -1.64745,-0.24236 0,-0.26163 -0.0991,-0.77866 0.0501,-1.00201 0.1749,-0.26212 1.11381,-0.11214 1.40355,-0.11214 v -0.19378 c -0.28974,0 -1.22865,0.14945 -1.40355,-0.11266 -0.13808,-0.20639 -0.0501,-0.66405 -0.0501,-0.90485 h 1.5503 v -0.24236 z m 2.9559,0 c 0.061,0.3658 0.58399,0.24236 0.87178,0.24236 v 2.5678 h 0.29094 v -2.5678 h 0.87178 v -0.24236 z m 3.39152,0 v 2.81016 h 0.29042 v -2.81016 z m -16.48478,0.14831 c 1.34065,-0.0433 1.46449,2.33944 0.10851,2.49339 -1.37549,0.1565 -1.54033,-2.29449 -0.24236,-2.48151 0.0458,-0.007 0.0906,-0.0105 0.13385,-0.0119 z" />
  </g>
</svg>
